<svg xmlns="http://www.w3.org/2000/svg" xmlns:xlink="http://www.w3.org/1999/xlink" id="Layer_1" x="0" y="0" version="1.1" viewBox="0 0 36 36" xml:space="preserve" style="enable-background:new 0 0 36 36"><style type="text/css">.st0,.st1{fill-rule:evenodd;clip-rule:evenodd;fill:#bbb}.st1{fill:#fff}.st2{fill:#bbb}.st3{fill:#afafaf}</style><path d="M17.7,20.1c-3.5,0-6.4-2.9-6.4-6.4s2.9-6.4,6.4-6.4s6.4,2.9,6.4,6.4S21.3,20.1,17.7,20.1z" class="st0"/><rect width="36" height="36" class="st1"/><path d="M17.7,20.1c-3.5,0-6.4-2.9-6.4-6.4s2.9-6.4,6.4-6.4s6.4,2.9,6.4,6.4S21.3,20.1,17.7,20.1z" class="st0"/><path d="M10.1,36l0.1-3.2c0.2-2.1,1.1-3.1,3.1-3.5l0,6.7h9.4l0-6.7c2,0.4,2.9,1.4,3.1,3.5l0.1,3.2h4.7	c-0.4-3.9-1.3-9-2.9-11c-1.1-1.4-2.3-2.2-3.5-2.6s-1.8-0.6-6.3-0.6s-6.1,0.7-6.1,0.7c-1.2,0.4-2.4,1.2-3.4,2.6	C6.7,27,5.8,32.2,5.4,36H10.1z" class="st2"/><path d="M10.1,36l0.1-3.2c0.2-2.1,1.1-3.1,3.1-3.5l0,6.7H10.1z" class="st3"/><path d="M25.9,36l-0.1-3.2c-0.2-2.1-1.1-3.1-3.1-3.5l0,6.7H25.9z" class="st3"/><path d="M19.3,19.9c-0.5,0.1-1,0.2-1.6,0.2c-3.5,0-6.4-2.9-6.4-6.4s2.9-6.4,6.4-6.4c0.6,0,1.1,0.1,1.6,0.2	c-2.8,0.8-4.9,3.3-4.9,6.3S16.5,19.3,19.3,19.9z" class="st3"/></svg>